<svg width="45" height="46" viewBox="0 0 45 46" fill="none" xmlns="http://www.w3.org/2000/svg">
<g id="Group">
<g id="Group 967">
<path id="Vector" d="M22.5 45.5C34.9264 45.5 45 35.4264 45 23C45 10.5736 34.9264 0.5 22.5 0.5C10.0736 0.5 0 10.5736 0 23C0 35.4264 10.0736 45.5 22.5 45.5Z" fill="#0048CE"/>
<path id="Vector_2" d="M12.7831 22.5393L23.8204 17.9823C24.9099 17.5076 28.6048 15.9886 28.6048 15.9886C28.6048 15.9886 30.3102 15.324 30.1681 16.9379C30.1207 17.6025 29.7417 19.9285 29.3628 22.4443L28.1785 29.897C28.1785 29.897 28.0838 30.9888 27.2785 31.1786C26.4732 31.3685 25.1468 30.5141 24.9099 30.3242C24.7204 30.1818 21.3571 28.0457 20.1255 27.0014C19.7939 26.7165 19.4149 26.1469 20.1729 25.4824C21.8782 23.9159 23.9151 21.9697 25.1468 20.7355C25.7152 20.1658 26.2837 18.8367 23.9151 20.4506L17.2359 24.9602C17.2359 24.9602 16.478 25.4349 15.0568 25.0077C13.6357 24.5804 11.9778 24.0108 11.9778 24.0108C11.9778 24.0108 10.8409 23.2988 12.7831 22.5393V22.5393Z" fill="white"/>
</g>
</g>
</svg>
