<svg width="45" height="46" viewBox="0 0 45 46" fill="none" xmlns="http://www.w3.org/2000/svg">
<g id="Group 966">
<path id="Vector" d="M22.5 45.9412C34.9264 45.9412 45 35.6701 45 23C45 10.33 34.9264 0.0588379 22.5 0.0588379C10.0736 0.0588379 0 10.33 0 23C0 35.6701 10.0736 45.9412 22.5 45.9412Z" fill="#0048CE"/>
<g id="Group">
<g id="Group_2">
<path id="Vector_2" d="M17.1013 30.6615L17.4869 30.8934C19.1068 31.8693 20.964 32.3853 22.858 32.3864H22.8621C28.6786 32.3864 33.4125 27.5822 33.4147 21.6777C33.4156 18.8162 32.3191 16.1258 30.3267 14.1015C28.3341 12.0776 25.685 10.9623 22.8659 10.9611C17.045 10.9611 12.3111 15.7645 12.3089 21.669C12.3081 23.6923 12.8657 25.6629 13.9222 27.3677L14.1733 27.7729L13.107 31.7245L17.1013 30.6615ZM10.0588 34.7854L11.86 28.1093C10.749 26.1554 10.1646 23.9389 10.1655 21.6684C10.1682 14.5647 15.8634 8.7854 22.8623 8.7854C26.2585 8.78689 29.4463 10.1286 31.8434 12.5638C34.2403 14.9991 35.5599 18.2362 35.5588 21.6788C35.5559 28.7821 29.8595 34.5625 22.8623 34.5625C22.8618 34.5625 22.8626 34.5625 22.8623 34.5625H22.8569C20.7321 34.5618 18.6442 34.0207 16.7897 32.9941L10.0588 34.7854Z" fill="white"/>
<path id="Vector_3" fill-rule="evenodd" clip-rule="evenodd" d="M20.6695 17.3442C20.4759 16.905 20.2723 16.8962 20.0882 16.8884C19.9375 16.8819 19.7652 16.8823 19.5931 16.8823C19.4208 16.8823 19.1409 16.9483 18.9042 17.2123C18.6673 17.4762 17.9999 18.1142 17.9999 19.4117C17.9999 20.7093 18.9258 21.9631 19.0548 22.1393C19.184 22.3151 20.8421 25.063 23.4677 26.12C25.6501 26.9985 26.0942 26.8238 26.5679 26.7798C27.0415 26.7359 28.0964 26.142 28.3116 25.5261C28.5269 24.9104 28.5269 24.3825 28.4623 24.2723C28.3978 24.1624 28.2255 24.0964 27.9671 23.9646C27.7087 23.8327 26.4386 23.1946 26.2019 23.1066C25.965 23.0187 25.7928 22.9748 25.6204 23.2388C25.4482 23.5025 24.9534 24.0964 24.8027 24.2723C24.652 24.4486 24.5012 24.4706 24.2429 24.3387C23.9845 24.2063 23.1524 23.9281 22.1654 23.0298C21.3973 22.3307 20.8789 21.4675 20.7281 21.2034C20.5774 20.9397 20.712 20.7968 20.8416 20.6654C20.9576 20.5472 21.1 20.3574 21.2292 20.2035C21.3581 20.0495 21.4011 19.9396 21.4872 19.7637C21.5734 19.5876 21.5303 19.4336 21.4658 19.3017C21.4011 19.1698 20.8991 17.8656 20.6693 17.3441" fill="white"/>
</g>
</g>
</g>
</svg>
